{
    "asset" : {
        "generator" : "Khronos glTF Blender I/O v3.2.40",
        "version" : "2.0"
    },
    "scene" : 0,
    "scenes" : [
        {
            "name" : "Scene",
            "nodes" : [
                4,
                5,
                6,
                7
            ]
        }
    ],
    "nodes" : [
        {
            "mesh" : 0,
            "name" : "Curve"
        },
        {
            "mesh" : 1,
            "name" : "Curve.001"
        },
        {
            "mesh" : 2,
            "name" : "Curve.002"
        },
        {
            "mesh" : 3,
            "name" : "Curve.004"
        },
        {
            "children" : [
                0,
                1,
                2,
                3
            ],
            "mesh" : 4,
            "name" : "Curve.003",
            "rotation" : [
                0.7071068286895752,
                0,
                0,
                0.7071068286895752
            ],
            "scale" : [
                1063.310546875,
                1063.310546875,
                1063.310546875
            ],
            "translation" : [
                -100,
                -3.445051670074463,
                -1.8776967525482178
            ]
        },
        {
            "camera" : 0,
            "name" : "Camera.001",
            "rotation" : [
                -0.1175711378455162,
                -0.11757184565067291,
                -0.014019531197845936,
                0.9859803915023804
            ],
            "translation" : [
                -157.02427673339844,
                201.16249084472656,
                622.1798706054688
            ]
        },
        {
            "camera" : 1,
            "name" : "Camera.002",
            "rotation" : [
                -0.05233494192361832,
                0.006970860995352268,
                0.00036541043664328754,
                0.9986051917076111
            ]
        },
        {
            "camera" : 2,
            "name" : "Camera.003",
            "rotation" : [
                -0.06627188622951508,
                0.006965072825551033,
                0.00046270168968476355,
                0.9977772235870361
            ]
        }
    ],
    "cameras" : [
        {
            "name" : "Camera.002",
            "perspective" : {
                "aspectRatio" : 1.7777777777777777,
                "yfov" : 0.39959652046304894,
                "zfar" : 1000,
                "znear" : 0.10000000149011612
            },
            "type" : "perspective"
        },
        {
            "name" : "Camera.003",
            "perspective" : {
                "aspectRatio" : 1.7777777777777777,
                "yfov" : 0.39959652046304894,
                "zfar" : 1000,
                "znear" : 0.10000000149011612
            },
            "type" : "perspective"
        },
        {
            "name" : "Camera.004",
            "perspective" : {
                "aspectRatio" : 1.7777777777777777,
                "yfov" : 0.39959652046304894,
                "zfar" : 1000,
                "znear" : 0.10000000149011612
            },
            "type" : "perspective"
        }
    ],
    "materials" : [
        {
            "doubleSided" : true,
            "name" : "SVGMat.001",
            "pbrMetallicRoughness" : {
                "baseColorFactor" : [
                    0.0012141079641878605,
                    0.00802319310605526,
                    0.34191441535949707,
                    1
                ],
                "metallicFactor" : 0,
                "roughnessFactor" : 0.4000000059604645
            }
        },
        {
            "doubleSided" : true,
            "name" : "SVGMat.002",
            "pbrMetallicRoughness" : {
                "baseColorFactor" : [
                    0.8796223998069763,
                    0.08228270709514618,
                    0.02518685907125473,
                    1
                ],
                "metallicFactor" : 0,
                "roughnessFactor" : 0.4000000059604645
            }
        },
        {
            "doubleSided" : true,
            "name" : "SVGMat.003",
            "pbrMetallicRoughness" : {
                "baseColorFactor" : [
                    0.8796223998069763,
                    0.08228270709514618,
                    0.02518685907125473,
                    1
                ],
                "metallicFactor" : 0,
                "roughnessFactor" : 0.4000000059604645
            }
        },
        {
            "doubleSided" : true,
            "name" : "SVGMat.005",
            "pbrMetallicRoughness" : {
                "baseColorFactor" : [
                    0.0012141079641878605,
                    0.00802319310605526,
                    0.34191441535949707,
                    1
                ],
                "metallicFactor" : 0,
                "roughnessFactor" : 0.4000000059604645
            }
        },
        {
            "doubleSided" : true,
            "name" : "SVGMat.004",
            "pbrMetallicRoughness" : {
                "baseColorFactor" : [
                    0.8796223998069763,
                    0.07618538290262222,
                    0.021219009533524513,
                    1
                ],
                "metallicFactor" : 0,
                "roughnessFactor" : 0.4000000059604645
            }
        }
    ],
    "meshes" : [
        {
            "name" : "Curve",
            "primitives" : [
                {
                    "attributes" : {
                        "POSITION" : 0,
                        "NORMAL" : 1,
                        "TEXCOORD_0" : 2
                    },
                    "indices" : 3,
                    "material" : 0
                }
            ]
        },
        {
            "name" : "Curve.001",
            "primitives" : [
                {
                    "attributes" : {
                        "POSITION" : 4,
                        "NORMAL" : 5,
                        "TEXCOORD_0" : 6
                    },
                    "indices" : 7,
                    "material" : 1
                }
            ]
        },
        {
            "name" : "Curve.002",
            "primitives" : [
                {
                    "attributes" : {
                        "POSITION" : 8,
                        "NORMAL" : 9,
                        "TEXCOORD_0" : 10
                    },
                    "indices" : 11,
                    "material" : 2
                }
            ]
        },
        {
            "name" : "Curve.004",
            "primitives" : [
                {
                    "attributes" : {
                        "POSITION" : 12,
                        "NORMAL" : 13,
                        "TEXCOORD_0" : 14
                    },
                    "indices" : 15,
                    "material" : 3
                }
            ]
        },
        {
            "name" : "Curve.003",
            "primitives" : [
                {
                    "attributes" : {
                        "POSITION" : 16,
                        "NORMAL" : 17,
                        "TEXCOORD_0" : 18
                    },
                    "indices" : 19,
                    "material" : 4
                }
            ]
        }
    ],
    "accessors" : [
        {
            "bufferView" : 0,
            "componentType" : 5126,
            "count" : 1622,
            "max" : [
                0.051491569727659225,
                0.004999999888241291,
                -0.02361886389553547
            ],
            "min" : [
                8.577062544645742e-07,
                -0.004999999888241291,
                -0.0982387587428093
            ],
            "type" : "VEC3"
        },
        {
            "bufferView" : 1,
            "componentType" : 5126,
            "count" : 1622,
            "type" : "VEC3"
        },
        {
            "bufferView" : 2,
            "componentType" : 5126,
            "count" : 1622,
            "type" : "VEC2"
        },
        {
            "bufferView" : 3,
            "componentType" : 5123,
            "count" : 2880,
            "type" : "SCALAR"
        },
        {
            "bufferView" : 4,
            "componentType" : 5126,
            "count" : 1140,
            "max" : [
                0.1523466557264328,
                0.004999999888241291,
                -0.10719741880893707
            ],
            "min" : [
                0.12164308875799179,
                -0.004999999888241291,
                -0.13917964696884155
            ],
            "type" : "VEC3"
        },
        {
            "bufferView" : 5,
            "componentType" : 5126,
            "count" : 1140,
            "type" : "VEC3"
        },
        {
            "bufferView" : 6,
            "componentType" : 5126,
            "count" : 1140,
            "type" : "VEC2"
        },
        {
            "bufferView" : 7,
            "componentType" : 5123,
            "count" : 2148,
            "type" : "SCALAR"
        },
        {
            "bufferView" : 8,
            "componentType" : 5126,
            "count" : 872,
            "max" : [
                0.14212436974048615,
                0.004999999888241291,
                -0.10716943442821503
            ],
            "min" : [
                0.12164027243852615,
                -0.004999999888241291,
                -0.12845999002456665
            ],
            "type" : "VEC3"
        },
        {
            "bufferView" : 9,
            "componentType" : 5126,
            "count" : 872,
            "type" : "VEC3"
        },
        {
            "bufferView" : 10,
            "componentType" : 5126,
            "count" : 872,
            "type" : "VEC2"
        },
        {
            "bufferView" : 11,
            "componentType" : 5123,
            "count" : 1572,
            "type" : "SCALAR"
        },
        {
            "bufferView" : 12,
            "componentType" : 5126,
            "count" : 1620,
            "max" : [
                0.19062723219394684,
                0.004999999888241291,
                -0.02359309047460556
            ],
            "min" : [
                0.13912521302700043,
                -0.004999999888241291,
                -0.09822992235422134
            ],
            "type" : "VEC3"
        },
        {
            "bufferView" : 13,
            "componentType" : 5126,
            "count" : 1620,
            "type" : "VEC3"
        },
        {
            "bufferView" : 14,
            "componentType" : 5126,
            "count" : 1620,
            "type" : "VEC2"
        },
        {
            "bufferView" : 15,
            "componentType" : 5123,
            "count" : 3000,
            "type" : "SCALAR"
        },
        {
            "bufferView" : 16,
            "componentType" : 5126,
            "count" : 19860,
            "max" : [
                0.12945449352264404,
                0.004999999888241291,
                -2.1781082978122868e-05
            ],
            "min" : [
                0.05955391377210617,
                -0.004999999888241291,
                -0.11664610356092453
            ],
            "type" : "VEC3"
        },
        {
            "bufferView" : 17,
            "componentType" : 5126,
            "count" : 19860,
            "type" : "VEC3"
        },
        {
            "bufferView" : 18,
            "componentType" : 5126,
            "count" : 19860,
            "type" : "VEC2"
        },
        {
            "bufferView" : 19,
            "componentType" : 5123,
            "count" : 35820,
            "type" : "SCALAR"
        }
    ],
    "bufferViews" : [
        {
            "buffer" : 0,
            "byteLength" : 19464,
            "byteOffset" : 0
        },
        {
            "buffer" : 0,
            "byteLength" : 19464,
            "byteOffset" : 19464
        },
        {
            "buffer" : 0,
            "byteLength" : 12976,
            "byteOffset" : 38928
        },
        {
            "buffer" : 0,
            "byteLength" : 5760,
            "byteOffset" : 51904
        },
        {
            "buffer" : 0,
            "byteLength" : 13680,
            "byteOffset" : 57664
        },
        {
            "buffer" : 0,
            "byteLength" : 13680,
            "byteOffset" : 71344
        },
        {
            "buffer" : 0,
            "byteLength" : 9120,
            "byteOffset" : 85024
        },
        {
            "buffer" : 0,
            "byteLength" : 4296,
            "byteOffset" : 94144
        },
        {
            "buffer" : 0,
            "byteLength" : 10464,
            "byteOffset" : 98440
        },
        {
            "buffer" : 0,
            "byteLength" : 10464,
            "byteOffset" : 108904
        },
        {
            "buffer" : 0,
            "byteLength" : 6976,
            "byteOffset" : 119368
        },
        {
            "buffer" : 0,
            "byteLength" : 3144,
            "byteOffset" : 126344
        },
        {
            "buffer" : 0,
            "byteLength" : 19440,
            "byteOffset" : 129488
        },
        {
            "buffer" : 0,
            "byteLength" : 19440,
            "byteOffset" : 148928
        },
        {
            "buffer" : 0,
            "byteLength" : 12960,
            "byteOffset" : 168368
        },
        {
            "buffer" : 0,
            "byteLength" : 6000,
            "byteOffset" : 181328
        },
        {
            "buffer" : 0,
            "byteLength" : 238320,
            "byteOffset" : 187328
        },
        {
            "buffer" : 0,
            "byteLength" : 238320,
            "byteOffset" : 425648
        },
        {
            "buffer" : 0,
            "byteLength" : 158880,
            "byteOffset" : 663968
        },
        {
            "buffer" : 0,
            "byteLength" : 71640,
            "byteOffset" : 822848
        }
    ],
    "buffers" : [
        {
            "byteLength" : 894488,
            "uri" : "data:application/octet-stream;base64,"
        }
    ]
}
